<?xml version="1.0" encoding="UTF-8" standalone="no"?>
<svg
   xmlns:dc="http://purl.org/dc/elements/1.1/"
   xmlns:cc="http://creativecommons.org/ns#"
   xmlns:rdf="http://www.w3.org/1999/02/22-rdf-syntax-ns#"
   xmlns:svg="http://www.w3.org/2000/svg"
   xmlns="http://www.w3.org/2000/svg"
   xmlns:xlink="http://www.w3.org/1999/xlink"
   xmlns:sodipodi="http://sodipodi.sourceforge.net/DTD/sodipodi-0.dtd"
   xmlns:inkscape="http://www.inkscape.org/namespaces/inkscape"
   id="goldenBoard"
   width="1000"
   height="1000"
   viewBox="0 0 1000 1000"
   version="1.1"
   inkscape:version="0.91 r13725"
   sodipodi:docname="7.svg">
  <metadata
     id="metadata5317">
    <rdf:RDF>
      <cc:Work
         rdf:about="">
        <dc:format>image/svg+xml</dc:format>
        <dc:type
           rdf:resource="http://purl.org/dc/dcmitype/StillImage" />
      </cc:Work>
    </rdf:RDF>
  </metadata>
  <sodipodi:namedview
     pagecolor="#ffffff"
     bordercolor="#666666"
     borderopacity="1"
     objecttolerance="10"
     gridtolerance="10"
     guidetolerance="10"
     inkscape:pageopacity="0"
     inkscape:pageshadow="2"
     inkscape:window-width="1920"
     inkscape:window-height="1061"
     id="namedview5315"
     showgrid="false"
     inkscape:zoom="0.4305"
     inkscape:cx="-373.77099"
     inkscape:cy="382.23801"
     inkscape:window-x="-4"
     inkscape:window-y="-4"
     inkscape:window-maximized="1"
     inkscape:current-layer="goldenBoard" />
  <defs
     id="defs5483">
    
  </defs>
  <g
     id="g5505"
     transform="matrix(10.903481,0,0,14.101788,-5354.2357,-928.12586)">
    <path
       d="m 517.5,125.4 34.5,0.3 c -1.6,-18.6 5,-32 19,-47 l -5,-2 c 0,0 -6,2.6 -13.2,2.6 -8,0 -8.5,-3 -17.5,-3 -14.7,-0.4 -19.4,2.3 -19.4,2.3 l -0.4,-2.3 -8.5,0 0,23.5 8.7,-0.2 c 1.4,-7.2 8.3,-8.2 13,-7 7.8,2.5 21.5,-2 21.5,-2 0,0 -5,3 -12,5.6 -9.4,3.5 -13.6,8.4 -17,13.8 -4.2,6 -3.8,15.4 -3.8,15.4 z"
       id="path5507"
       inkscape:connector-curvature="0"
       style="fill:#ea363b;fill-rule:evenodd" />
    <path
       d="m 528.7,99.5 c -3.3,2.6 -5.5,5.4 -7.5,8.5 -4,6 -3.7,15.4 -3.7,15.4 l 34.5,0.3 c -0.8,-9 0.4,-16.8 3.4,-24.2 l -26.7,0 z"
       id="path5509"
       style="opacity:0.3;fill:url(#d);fill-rule:evenodd"
       inkscape:connector-curvature="0" />
    <path
       d="m 517.5,125.4 34.5,0.3 c -1.6,-18.6 5,-32 19,-47 l -5,-2 c 0,0 -6,2.6 -13.2,2.6 -8,0 -8.5,-3 -17.5,-3 -14.7,-0.4 -19.4,2.3 -19.4,2.3 l -0.4,-2.3 -8.5,0 0,23.5 8.7,-0.2 c 1.4,-7.2 8.3,-8.2 13,-7 7.8,2.5 21,-1.6 21,-1.6 L 535,97.6 c -9.6,4.4 -13,10.4 -15,14.4 -2.7,5.8 -2.5,13.4 -2.5,13.4 z"
       id="path5511"
       inkscape:connector-curvature="0"
       style="fill:none" />
    <ellipse
       cx="532.90002"
       cy="83.199997"
       ry="5.9000001"
       rx="17.6"
       id="ellipse5513"
       style="fill:url(#e)" />
    <path
       d="m 517.5,125.4 34.5,0.3 c -1.6,-18.6 5,-32 19,-47 l -5,-2 c 0,0 -6,2.6 -13.2,2.6 -8,0 -8.5,-3 -17.5,-3 -14.7,-0.4 -19.4,2.3 -19.4,2.3 l -0.4,-2.3 -8.5,0 0,23.5 8.7,-0.2 c 1.4,-7.2 8.3,-8.2 13,-7 7.8,2.5 21.5,-2 21.5,-2 0,0 -5,3 -12,5.6 -9.4,3.5 -13.6,8.4 -17,13.8 -4.2,6 -3.8,15.4 -3.8,15.4 z"
       id="path5515"
       inkscape:connector-curvature="0"
       style="fill:none;stroke:#000000;stroke-width:3.9000001;stroke-linecap:square;stroke-linejoin:round" />
    <path
       stroke-miterlimit="10"
       d="m 517.5,125.4 34.5,0.3 c -1.6,-18.6 5,-32 19,-47 l -5,-2 c 0,0 -6,2.6 -13.2,2.6 -8,0 -8.5,-3 -17.5,-3 -14.7,-0.4 -19.4,2.3 -19.4,2.3 l -0.4,-2.3 -8.5,0 0,23.5 8.7,-0.2 c 1.4,-7.2 8.3,-8.2 13,-7 7.8,2.5 21,-1.6 21,-1.6 L 535,97.6 c -9.6,4.4 -13,10.4 -15,14.4 -2.7,5.8 -2.5,13.4 -2.5,13.4 z"
       id="path5517"
       style="fill:none;stroke:url(#f);stroke-width:1.5;stroke-linejoin:round;stroke-miterlimit:10"
       inkscape:connector-curvature="0" />
  </g>
</svg>
