<svg id="goldenBoard" width="100%" height="100%" viewBox="0 0 809 500" version="1.1" xmlns:xlink="http://www.w3.org/1999/xlink">
  <defs id="rootDefs">
    <linearGradient id="goldWaveStops" xmlns="http://www.w3.org/2000/svg">
      <stop stop-color="#fffec5" offset="0" />
      <stop stop-color="#bd643d" offset="1" />
    </linearGradient>
    <linearGradient id="goldWaveTrim" spreadMethod="reflect" gradientUnits="userSpaceOnUse" x1="20" x2="20" y1="250" y2="375" xlink:href="#goldWaveStops" xmlns="http://www.w3.org/2000/svg"></linearGradient>
    <linearGradient id="goldWaveBorder" spreadMethod="reflect" gradientUnits="userSpaceOnUse" x1="20" x2="20" y1="250" y2="365" xlink:href="#goldWaveStops" xmlns="http://www.w3.org/2000/svg"></linearGradient>
    <linearGradient id="reelSeperatorBackground" x1="0" y1="0" x2="50%" y2="0" gradientUnits="objectBoundingBox" spreadMethod="reflect">
      <stop old-stop-color="#e85773" stop-color="#000000" stop-opacity="1" offset="0" />
      <stop stop-color="#ffffff" stop-opacity="0" offset="0.62" />
    </linearGradient>
    <linearGradient id="reelBackgroundGrad" x1="0" y1="0" x2="50%" y2="0" gradientUnits="objectBoundingBox" spreadMethod="reflect">
      <stop old-stop-color="#e85773" stop-color="#ff0000" stop-opacity="1" offset="0" />
      <stop stop-color="#ffffff" stop-opacity="0" offset="0.62" />
    </linearGradient>
    <g id="fruitImage-1" class="fruitContainer" xmlns="http://www.w3.org/2000/svg">
      <rect x="500" y="500" width="250" height="250" fill-opacity="1" />
    </g>
    <g id="fruitImage0" class="fruitImage" xmlns="http://www.w3.org/2000/svg">
      <rect x="250" y="200" width="500" height="300" fill="#00ffff" fill-opacity="1" />
    </g>
    <g id="fruitImage1" class="fruitImage" xmlns="http://www.w3.org/2000/svg">
      <rect x="300" y="250" width="200" height="500" fill="#ff00ff" fill-opacity="1" />
    </g>
    <g id="fruitImage2" class="fruitImage" xmlns="http://www.w3.org/2000/svg">
      <circle cx="500" cy="500" r="100" fill="#01000ff" fill-opacity="1" />
    </g>
    <g id="fruitImage3" class="fruitImage" xmlns="http://www.w3.org/2000/svg">
      <circle cx="500" cy="500" r="300" fill="#00ff00" fill-opacity="1" />
    </g>
    <g id="fruitImage4" class="fruitImage" xmlns="http://www.w3.org/2000/svg">
      <circle cx="300" cy="500" r="300" fill="#00ffff" fill-opacity="1" />
    </g>
    <linearGradient id="d" x1="543.6" x2="543.7" y1="125.6" y2="101.4" xlink:href="#a" gradientUnits="userSpaceOnUse" gradientTransform="translate(0,-2)" xmlns="http://www.w3.org/2000/svg" />
    <linearGradient id="a" xmlns="http://www.w3.org/2000/svg">
      <stop offset="0" stop-color="#fff" id="stop5487" />
      <stop offset="1" stop-opacity="0" id="stop5489" />
    </linearGradient>
    <radialGradient id="e" cx="672.8" cy="467.5" r="21" xlink:href="#b" gradientUnits="userSpaceOnUse" gradientTransform="matrix(0.83777,0,0,0.27926,-30.768,-47.313)" fx="672.8" fy="467.5" xmlns="http://www.w3.org/2000/svg" />
    <linearGradient id="b" xmlns="http://www.w3.org/2000/svg">
      <stop offset="0" stop-color="#fff" id="stop5493" />
      <stop offset="1" stop-color="#fff" stop-opacity="0" id="stop5495" />
    </linearGradient>
    <linearGradient id="f" x1="587.1" x2="587.1" y1="485.2" y2="431.4" xlink:href="#c" gradientUnits="userSpaceOnUse" gradientTransform="translate(-46.443,-357.47)" xmlns="http://www.w3.org/2000/svg" />
    <linearGradient id="c" xmlns="http://www.w3.org/2000/svg">
      <stop offset="0" stop-color="#fff" stop-opacity=".1" id="stop5499" />
      <stop offset=".5" stop-color="#fff" id="stop5501" />
      <stop offset="1" stop-color="#fff" stop-opacity=".1" id="stop5503" />
    </linearGradient>
    <g id="fruitImage5" transform="matrix(10.903481,0,0,14.101788,-5354.2357,-928.12586)" xmlns="http://www.w3.org/2000/svg">
      <path d="m 517.5,125.4 34.5,0.3 c -1.6,-18.6 5,-32 19,-47 l -5,-2 c 0,0 -6,2.6 -13.2,2.6 -8,0 -8.5,-3 -17.5,-3 -14.7,-0.4 -19.4,2.3 -19.4,2.3 l -0.4,-2.3 -8.5,0 0,23.5 8.7,-0.2 c 1.4,-7.2 8.3,-8.2 13,-7 7.8,2.5 21.5,-2 21.5,-2 0,0 -5,3 -12,5.6 -9.4,3.5 -13.6,8.4 -17,13.8 -4.2,6 -3.8,15.4 -3.8,15.4 z" id="path5507" p5:connector-curvature="0" style="fill:#ea363b;fill-rule:evenodd" xmlns:p5="http://www.inkscape.org/namespaces/inkscape" />
      <path d="m 528.7,99.5 c -3.3,2.6 -5.5,5.4 -7.5,8.5 -4,6 -3.7,15.4 -3.7,15.4 l 34.5,0.3 c -0.8,-9 0.4,-16.8 3.4,-24.2 l -26.7,0 z" id="path5509" style="opacity:0.3;fill:url(#d);fill-rule:evenodd" p5:connector-curvature="0" xmlns:p5="http://www.inkscape.org/namespaces/inkscape" />
      <path d="m 517.5,125.4 34.5,0.3 c -1.6,-18.6 5,-32 19,-47 l -5,-2 c 0,0 -6,2.6 -13.2,2.6 -8,0 -8.5,-3 -17.5,-3 -14.7,-0.4 -19.4,2.3 -19.4,2.3 l -0.4,-2.3 -8.5,0 0,23.5 8.7,-0.2 c 1.4,-7.2 8.3,-8.2 13,-7 7.8,2.5 21,-1.6 21,-1.6 L 535,97.6 c -9.6,4.4 -13,10.4 -15,14.4 -2.7,5.8 -2.5,13.4 -2.5,13.4 z" id="path5511" p5:connector-curvature="0" style="fill:none" xmlns:p5="http://www.inkscape.org/namespaces/inkscape" />
      <ellipse cx="532.90002" cy="83.199997" ry="5.9000001" rx="17.6" id="ellipse5513" style="fill:url(#e)" />
      <path d="m 517.5,125.4 34.5,0.3 c -1.6,-18.6 5,-32 19,-47 l -5,-2 c 0,0 -6,2.6 -13.2,2.6 -8,0 -8.5,-3 -17.5,-3 -14.7,-0.4 -19.4,2.3 -19.4,2.3 l -0.4,-2.3 -8.5,0 0,23.5 8.7,-0.2 c 1.4,-7.2 8.3,-8.2 13,-7 7.8,2.5 21.5,-2 21.5,-2 0,0 -5,3 -12,5.6 -9.4,3.5 -13.6,8.4 -17,13.8 -4.2,6 -3.8,15.4 -3.8,15.4 z" id="path5515" p5:connector-curvature="0" style="fill:none;stroke:#000000;stroke-width:3.9000001;stroke-linecap:square;stroke-linejoin:round" xmlns:p5="http://www.inkscape.org/namespaces/inkscape" />
      <path stroke-miterlimit="10" d="m 517.5,125.4 34.5,0.3 c -1.6,-18.6 5,-32 19,-47 l -5,-2 c 0,0 -6,2.6 -13.2,2.6 -8,0 -8.5,-3 -17.5,-3 -14.7,-0.4 -19.4,2.3 -19.4,2.3 l -0.4,-2.3 -8.5,0 0,23.5 8.7,-0.2 c 1.4,-7.2 8.3,-8.2 13,-7 7.8,2.5 21,-1.6 21,-1.6 L 535,97.6 c -9.6,4.4 -13,10.4 -15,14.4 -2.7,5.8 -2.5,13.4 -2.5,13.4 z" id="path5517" style="fill:none;stroke:url(#f);stroke-width:1.5;stroke-linejoin:round;stroke-miterlimit:10" p5:connector-curvature="0" xmlns:p5="http://www.inkscape.org/namespaces/inkscape" />
    </g>
    <g id="fruitImage6" transform="translate(213.70499,0)" style="font-style:normal;font-weight:normal;font-size:1078.06323242px;line-height:125%;font-family:sans-serif;letter-spacing:0px;word-spacing:0px;fill:#000000;fill-opacity:1;stroke:none;stroke-width:1px;stroke-linecap:butt;stroke-linejoin:miter;stroke-opacity:1" xmlns="http://www.w3.org/2000/svg">
      <path d="m 504.04323,897.3375 -424.276834,0 0,-80.01251 163.183404,0 0,-525.34527 -163.183404,0 0,-71.59013 q 33.163074,0 71.063734,-5.26398 37.90066,-5.79038 57.37739,-16.31834 24.21431,-13.15995 37.90066,-33.16308 14.21275,-20.52952 16.31834,-54.7454 l 81.5917,0 0,706.4262 160.02501,0 0,80.01251 z" style="" id="path4180" />
    </g>
  </defs>
  <g id="rootGroup">
    <rect id="borderOutline" x="0" y="0" width="809" height="500" fill="url(#goldWaveBorder)" xmlns="http://www.w3.org/2000/svg" />
    <g id="bolderGoldOverlays" xmlns="http://www.w3.org/2000/svg">
      <rect x="19.5" y="15" width="5" height="470" fill="url(#goldWaveTrim)"></rect>
      <rect x="784.5" y="15" width="5" height="470" fill="url(#goldWaveTrim)"></rect>
    </g>
    <rect id="borderInline" x="24.5" y="15" width="760" height="470" fill="#fff" stroke="black" stroke-width="0.2" xmlns="http://www.w3.org/2000/svg" />
    <g id="reelsContainer" />
  </g>
</svg>